<?xml version="1.0" encoding="UTF-8" standalone="no"?>
<!-- Created with Inkscape (http://www.inkscape.org/) -->

<svg
   version="1.1"
   id="svg2"
   width="423.50668"
   height="423.50668"
   viewBox="0 0 423.50668 423.50668"
   sodipodi:docname="EMBLEMA TERRAL (fundocolorido).eps"
   xmlns:inkscape="http://www.inkscape.org/namespaces/inkscape"
   xmlns:sodipodi="http://sodipodi.sourceforge.net/DTD/sodipodi-0.dtd"
   xmlns="http://www.w3.org/2000/svg"
   xmlns:svg="http://www.w3.org/2000/svg">
  <defs
     id="defs6" />
  <sodipodi:namedview
     id="namedview4"
     pagecolor="#ffffff"
     bordercolor="#000000"
     borderopacity="0.25"
     inkscape:showpageshadow="2"
     inkscape:pageopacity="0.0"
     inkscape:pagecheckerboard="0"
     inkscape:deskcolor="#d1d1d1" />
  <g
     id="g8"
     inkscape:groupmode="layer"
     inkscape:label="ink_ext_XXXXXX"
     transform="matrix(1.3333333,0,0,-1.3333333,0,423.50667)">
    <g
       id="g10"
       transform="scale(0.1)">
      <path
         d="m 3176.34,1588.17 c 0,877.12 -711.05,1588.17 -1588.17,1588.17 C 711.047,3176.34 0,2465.29 0,1588.17 0,711.051 711.047,0 1588.17,0 2465.29,0 3176.34,711.051 3176.34,1588.17"
         style="fill:#ffffff;fill-opacity:1;fill-rule:nonzero;stroke:none"
         id="path12" />
      <path
         d="m 3025.6,1973.29 -31.11,125.53 -314.59,-418.43 21.82,-250.58 131.74,176.38 c 1.36,-13.15 1.79,-26.24 2.5,-39.34 C 2830.09,1019.21 2458.05,544.922 1926.53,411 l 59.57,-236.609 c 644.42,162.39 1094.41,740.328 1094.41,1405.489 0,132.88 -18.71,265.01 -54.91,393.41"
         style="fill:#2e9d4b;fill-opacity:1;fill-rule:nonzero;stroke:none"
         id="path14" />
      <path
         d="m 528.293,2557.65 -89.641,-93.22 521.711,-43.23 200.407,151.99 -219.457,17.49 c 10.414,8.16 21.257,15.5 31.968,23.08 466.529,286.85 1066.129,224.78 1462.679,-153.63 l 168.48,176.49 C 2123.64,3095.39 1394.79,3168.2 831.938,2813.76 719.5,2742.95 617.66,2656.71 528.293,2557.65"
         style="fill:#ee2432;fill-opacity:1;fill-rule:nonzero;stroke:none"
         id="path16" />
      <path
         d="m 1377.26,133.469 127.5,-21.637 -257.85,455.59 -238.42,80.129 109.05,-191.25 c -12.61,4.019 -24.78,8.847 -37.08,13.429 C 580.809,693.961 294.703,1224.54 384.359,1765.3 l -240.703,39.95 C 34.9844,1149.62 384.949,506.172 994.68,240.352 c 121.81,-53.102 250.41,-88.75 382.58,-106.883"
         style="fill:#3a76c3;fill-opacity:1;fill-rule:nonzero;stroke:none"
         id="path18" />
      <path
         d="m 2732.61,2268.84 -1152.47,-674.72 21.44,-192.43 426.06,7.82 704.97,859.33"
         style="fill:#2e9d4b;fill-opacity:1;fill-rule:nonzero;stroke:none"
         id="path20" />
      <path
         d="m 1566.46,1589.62 c 4.48,1.74 9.05,3.26 13.73,4.48 l -255.35,432.08 -1095.219,189.92 1190.969,-691.05 28.87,68.2 c 25.87,-1.4 80.52,-2.97 117,-3.63"
         style="fill:#ee2432;fill-opacity:1;fill-rule:nonzero;stroke:none"
         id="path22" />
      <path
         d="m 1580.19,1594.1 c -6.19,0.03 -14.52,0.15 -24.02,0.32 -36.48,0.66 -91.14,2.22 -117.01,3.62 l -28.86,-68.19 -166.8,-394.14 498.43,-993.448 -140.27,1259.048 -21.43,192.43 -0.04,0.36"
         style="fill:#3a76c3;fill-opacity:1;fill-rule:nonzero;stroke:none"
         id="path24" />
    </g>
  </g>
</svg>
