<svg xmlns="http://www.w3.org/2000/svg" fill="none" viewBox="0 143.25 654.75 94.5" style="max-height: 500px" width="654.75" height="94.5">
<rect fill="#1E1E1E" height="375" width="666"/>
<g clip-path="url(#clip0_0_1)">
<rect fill="#C93AB0" height="375" width="666"/>
<mask fill="white" id="path-1-inside-1_0_1">
<path d="M0 0V375H666V0H0ZM3 238H648L647.798 236.329L647.442 234.84L646.786 232.975L645.862 230.998L644.743 229L642.829 226L641.494 224.001C640.613 222.685 639.749 221.356 638.798 220.09C637.886 218.876 636.891 217.736 635.908 216.579L634.504 214.87C633.803 214.006 633.15 213.099 632.406 212.271L631.639 211.421L629.127 208.87C627.995 207.728 626.881 206.571 625.718 205.46C624.578 204.37 623.341 203.388 622.155 202.35C620.713 201.088 619.334 199.749 617.83 198.559C616.595 197.581 615.28 196.71 613.996 195.799C612.337 194.624 610.704 193.407 609 192.296C607.366 191.231 605.659 190.283 604 189.258C601.996 188.019 600.063 186.657 598 185.515C596.382 184.619 594.684 183.901 593 183.142L590 181.731C587.661 180.569 585.412 179.209 583 178.198C581.694 177.65 580.337 177.236 579 176.773L577 175.995L573 174.166C571.679 173.608 570.344 173.094 569 172.593L567 171.887C566.008 171.565 565.012 171.286 564 171.036L560 170.079C558.988 169.801 557.992 169.48 557 169.139L554 168.076C552.353 167.526 550.689 167.057 549 166.654L544 165.576C542.003 165.135 540.023 164.609 538 164.296C536.673 164.091 535.333 163.992 534 163.844L532 163.562C529.99 163.239 528.003 162.785 526 162.424L523 161.92L519 161.272L516 160.87L514 160.579C513.001 160.43 512.006 160.266 511 160.17C510.001 160.074 509.003 160.038 508 160.014C506.667 159.982 505.332 160.002 504 159.91L502 159.715L499 159.285C498.002 159.156 497.005 159.083 496 159.039C494.336 158.966 492.665 159.001 491 159H483H477C475.335 159.003 473.663 158.976 472 159.09C469.652 159.25 467.347 159.749 465 159.91C463.003 160.048 460.997 159.952 459 160.09L457 160.285L453 160.834L450 161.075L448 161.285C446.662 161.456 445.331 161.699 444 161.92C442.329 162.197 440.663 162.485 439 162.803C437.336 163.121 435.68 163.485 434 163.711C432.339 163.935 430.665 163.985 429 164.166C427.726 164.305 426.463 164.513 425.2 164.721L425 164.754C423.665 164.973 422.327 165.184 421 165.449L415 166.789C412.003 167.426 408.987 167.967 406 168.651L401 169.87L399 170.334C398.005 170.539 397.009 170.72 396 170.841L393 171.159L391 171.463C388.641 171.891 386.335 172.576 384 173.113L381 173.739L377 174.449C374.985 174.855 372.995 175.379 371 175.87L369 176.335L367 176.715L363 177.272L359 177.92L356 178.424C352.323 179.088 348.677 179.912 345 180.576L340 181.414L336 182.08L332 182.718L328 183.155C326.33 183.355 324.674 183.671 323 183.83C321.398 183.983 319.792 183.991 318.184 183.998L318 183.999L313 184H297H285L281 183.996C279.664 183.984 278.331 183.959 277 183.83C275.659 183.7 274.329 183.467 273 183.246C271.665 183.025 270.327 182.816 269 182.551L265 181.65C262.669 181.126 260.318 180.685 258 180.105C255.984 179.601 254.004 178.973 252 178.425C250.676 178.063 249.347 177.719 248 177.449L245 176.88L243 176.406L242 176.103C240.65 175.684 239.334 175.158 238 174.691L234 173.309L230 171.886C228.35 171.346 226.668 170.915 225 170.434L223 169.761L219 168.203C217.342 167.556 215.682 166.926 214 166.344C212.015 165.657 210.015 165.017 208 164.424C206.329 163.933 204.649 163.487 203 162.921L199 161.424C197.346 160.815 195.689 160.228 194 159.721C192.349 159.226 190.681 158.804 189 158.425L186 157.79L183 157.116L180 156.373L173 154.627C171.34 154.214 169.682 153.777 168 153.46C166.344 153.148 164.667 152.967 163 152.729C161.334 152.491 159.681 152.205 158 152.09C155.337 151.907 152.663 152.092 150 151.91C149.022 151.844 148.057 151.717 147.086 151.59L147 151.579C146.002 151.449 145.009 151.286 144 151.259L142 151.325L139 151.715L137 151.91C134.337 152.092 131.663 151.907 129 152.09L127 152.285L124 152.718L119 153.285C116.983 153.572 114.977 153.984 113 154.475L109 155.576L105 156.625L101 157.576L97 158.478C95.6489 158.812 94.3222 159.24 93 159.671C91.3185 160.22 89.6445 160.798 88 161.45L83 163.551C80.6682 164.484 78.279 165.26 76 166.323C73.6037 167.441 71.3563 168.839 69 170.034L65.0039 171.942C64.0159 172.43 63.041 172.94 62.0895 173.496C60.5873 174.374 59.1822 175.398 57.7145 176.329C56.1535 177.32 54.5352 178.214 52.9961 179.241C51.2952 180.375 49.6748 181.626 48 182.798L43.0394 186.201C41.507 187.318 40.0619 188.542 38.5764 189.718C37.412 190.641 36.1852 191.485 35.0502 192.444L33.2816 194.039L30.7145 196.58L26 201.039C24.6876 202.325 23.4012 203.636 22.1698 205C20.9946 206.301 19.8769 207.653 18.7546 209L18.6346 209.144C17.308 210.736 15.9818 212.327 14.7569 214C13.5957 215.586 12.5385 217.241 11.4809 218.896L11.4144 219L9.52392 222C8.90486 222.994 8.27999 223.982 7.69985 225C7.13842 225.985 6.61454 226.991 6.09877 228C5.42712 229.314 4.78326 230.635 4.20988 231.995L3.5571 233.955L3.18596 235.841L3.10262 236.329L3 238Z" clip-rule="evenodd" fill-rule="evenodd"/>
</mask>
<path fill="#D9D9D9" d="M0 0V375H666V0H0ZM3 238H648L647.798 236.329L647.442 234.84L646.786 232.975L645.862 230.998L644.743 229L642.829 226L641.494 224.001C640.613 222.685 639.749 221.356 638.798 220.09C637.886 218.876 636.891 217.736 635.908 216.579L634.504 214.87C633.803 214.006 633.15 213.099 632.406 212.271L631.639 211.421L629.127 208.87C627.995 207.728 626.881 206.571 625.718 205.46C624.578 204.37 623.341 203.388 622.155 202.35C620.713 201.088 619.334 199.749 617.83 198.559C616.595 197.581 615.28 196.71 613.996 195.799C612.337 194.624 610.704 193.407 609 192.296C607.366 191.231 605.659 190.283 604 189.258C601.996 188.019 600.063 186.657 598 185.515C596.382 184.619 594.684 183.901 593 183.142L590 181.731C587.661 180.569 585.412 179.209 583 178.198C581.694 177.65 580.337 177.236 579 176.773L577 175.995L573 174.166C571.679 173.608 570.344 173.094 569 172.593L567 171.887C566.008 171.565 565.012 171.286 564 171.036L560 170.079C558.988 169.801 557.992 169.48 557 169.139L554 168.076C552.353 167.526 550.689 167.057 549 166.654L544 165.576C542.003 165.135 540.023 164.609 538 164.296C536.673 164.091 535.333 163.992 534 163.844L532 163.562C529.99 163.239 528.003 162.785 526 162.424L523 161.92L519 161.272L516 160.87L514 160.579C513.001 160.43 512.006 160.266 511 160.17C510.001 160.074 509.003 160.038 508 160.014C506.667 159.982 505.332 160.002 504 159.91L502 159.715L499 159.285C498.002 159.156 497.005 159.083 496 159.039C494.336 158.966 492.665 159.001 491 159H483H477C475.335 159.003 473.663 158.976 472 159.09C469.652 159.25 467.347 159.749 465 159.91C463.003 160.048 460.997 159.952 459 160.09L457 160.285L453 160.834L450 161.075L448 161.285C446.662 161.456 445.331 161.699 444 161.92C442.329 162.197 440.663 162.485 439 162.803C437.336 163.121 435.68 163.485 434 163.711C432.339 163.935 430.665 163.985 429 164.166C427.726 164.305 426.463 164.513 425.2 164.721L425 164.754C423.665 164.973 422.327 165.184 421 165.449L415 166.789C412.003 167.426 408.987 167.967 406 168.651L401 169.87L399 170.334C398.005 170.539 397.009 170.72 396 170.841L393 171.159L391 171.463C388.641 171.891 386.335 172.576 384 173.113L381 173.739L377 174.449C374.985 174.855 372.995 175.379 371 175.87L369 176.335L367 176.715L363 177.272L359 177.92L356 178.424C352.323 179.088 348.677 179.912 345 180.576L340 181.414L336 182.08L332 182.718L328 183.155C326.33 183.355 324.674 183.671 323 183.83C321.398 183.983 319.792 183.991 318.184 183.998L318 183.999L313 184H297H285L281 183.996C279.664 183.984 278.331 183.959 277 183.83C275.659 183.7 274.329 183.467 273 183.246C271.665 183.025 270.327 182.816 269 182.551L265 181.65C262.669 181.126 260.318 180.685 258 180.105C255.984 179.601 254.004 178.973 252 178.425C250.676 178.063 249.347 177.719 248 177.449L245 176.88L243 176.406L242 176.103C240.65 175.684 239.334 175.158 238 174.691L234 173.309L230 171.886C228.35 171.346 226.668 170.915 225 170.434L223 169.761L219 168.203C217.342 167.556 215.682 166.926 214 166.344C212.015 165.657 210.015 165.017 208 164.424C206.329 163.933 204.649 163.487 203 162.921L199 161.424C197.346 160.815 195.689 160.228 194 159.721C192.349 159.226 190.681 158.804 189 158.425L186 157.79L183 157.116L180 156.373L173 154.627C171.34 154.214 169.682 153.777 168 153.46C166.344 153.148 164.667 152.967 163 152.729C161.334 152.491 159.681 152.205 158 152.09C155.337 151.907 152.663 152.092 150 151.91C149.022 151.844 148.057 151.717 147.086 151.59L147 151.579C146.002 151.449 145.009 151.286 144 151.259L142 151.325L139 151.715L137 151.91C134.337 152.092 131.663 151.907 129 152.09L127 152.285L124 152.718L119 153.285C116.983 153.572 114.977 153.984 113 154.475L109 155.576L105 156.625L101 157.576L97 158.478C95.6489 158.812 94.3222 159.24 93 159.671C91.3185 160.22 89.6445 160.798 88 161.45L83 163.551C80.6682 164.484 78.279 165.26 76 166.323C73.6037 167.441 71.3563 168.839 69 170.034L65.0039 171.942C64.0159 172.43 63.041 172.94 62.0895 173.496C60.5873 174.374 59.1822 175.398 57.7145 176.329C56.1535 177.32 54.5352 178.214 52.9961 179.241C51.2952 180.375 49.6748 181.626 48 182.798L43.0394 186.201C41.507 187.318 40.0619 188.542 38.5764 189.718C37.412 190.641 36.1852 191.485 35.0502 192.444L33.2816 194.039L30.7145 196.58L26 201.039C24.6876 202.325 23.4012 203.636 22.1698 205C20.9946 206.301 19.8769 207.653 18.7546 209L18.6346 209.144C17.308 210.736 15.9818 212.327 14.7569 214C13.5957 215.586 12.5385 217.241 11.4809 218.896L11.4144 219L9.52392 222C8.90486 222.994 8.27999 223.982 7.69985 225C7.13842 225.985 6.61454 226.991 6.09877 228C5.42712 229.314 4.78326 230.635 4.20988 231.995L3.5571 233.955L3.18596 235.841L3.10262 236.329L3 238Z" clip-rule="evenodd" fill-rule="evenodd"/>
<path mask="url(#path-1-inside-1_0_1)" fill="#C93AB0" d="M11.4144 219L11.8357 219.269C11.8578 219.235 11.8802 219.2 11.9022 219.165L11.4809 218.896L11.0595 218.627C11.0373 218.662 11.0154 218.696 10.9931 218.731L11.4144 219ZM18.6346 209.144L19.0187 209.464C19.0587 209.416 19.0987 209.368 19.1387 209.32L18.7546 209L18.3705 208.68C18.3305 208.728 18.2905 208.776 18.2505 208.824L18.6346 209.144ZM147 151.579L146.935 152.075C146.964 152.079 146.991 152.082 147.021 152.086L147.086 151.59L147.151 151.094C147.123 151.091 147.093 151.087 147.065 151.083L147 151.579ZM318 183.999L318.002 184.499C318.064 184.499 318.125 184.498 318.186 184.498L318.184 183.998L318.182 183.498C318.12 183.498 318.059 183.499 317.998 183.499L318 183.999ZM425 164.754L425.081 165.247C425.148 165.236 425.215 165.225 425.282 165.214L425.2 164.721L425.119 164.228C425.052 164.239 424.985 164.25 424.919 164.261L425 164.754ZM0 0V-1H-1V0H0ZM0 375H-1V376H0V375ZM666 375V376H667V375H666ZM666 0H667V-1H666V0ZM648 238V239H649.128L648.993 237.88L648 238ZM3 238L2.00188 237.939L1.9367 239H3V238ZM3.10262 236.329L2.11689 236.161L2.10781 236.214L2.1045 236.268L3.10262 236.329ZM3.18596 235.841L2.20478 235.648L2.20235 235.66L2.20023 235.673L3.18596 235.841ZM3.5571 233.955L2.60834 233.639L2.58821 233.699L2.57592 233.762L3.5571 233.955ZM4.20988 231.995L3.28843 231.607L3.27337 231.642L3.26112 231.679L4.20988 231.995ZM6.09877 228L5.20836 227.545L5.20835 227.545L6.09877 228ZM7.69985 225L8.56863 225.495L8.56867 225.495L7.69985 225ZM9.52392 222L8.67788 221.467L8.67508 221.471L9.52392 222ZM11.4144 219L10.5717 218.462L10.5684 218.467L11.4144 219ZM14.7569 214L13.9501 213.409L13.9501 213.409L14.7569 214ZM18.7546 209L19.5228 209.64L19.5229 209.64L18.7546 209ZM22.1698 205L22.9119 205.67L22.9121 205.67L22.1698 205ZM26 201.039L25.3129 200.312L25.3064 200.319L25.3001 200.325L26 201.039ZM30.7145 196.58L31.4016 197.307L31.4099 197.299L31.418 197.291L30.7145 196.58ZM33.2816 194.039L32.6119 193.296L32.5946 193.312L32.5781 193.328L33.2816 194.039ZM35.0502 192.444L34.4048 191.68L34.3925 191.691L34.3805 191.701L35.0502 192.444ZM38.5764 189.718L37.9557 188.934L37.9552 188.934L38.5764 189.718ZM43.0394 186.201L42.4737 185.376L42.4619 185.384L42.4504 185.393L43.0394 186.201ZM48 182.798L48.5657 183.623L48.5733 183.617L48 182.798ZM52.9961 179.241L53.5508 180.073L53.5512 180.073L52.9961 179.241ZM57.7145 176.329L57.1789 175.485L57.1785 175.485L57.7145 176.329ZM62.0895 173.496L61.585 172.633L61.5849 172.633L62.0895 173.496ZM65.0039 171.942L64.573 171.04L64.561 171.045L65.0039 171.942ZM69 170.034L69.4309 170.936L69.4417 170.931L69.4523 170.926L69 170.034ZM76 166.323L75.5773 165.417L75.5772 165.417L76 166.323ZM83 163.551L83.3715 164.479L83.3795 164.476L83.3874 164.473L83 163.551ZM88 161.45L87.6314 160.52L87.622 160.524L87.6126 160.528L88 161.45ZM93 159.671L92.6901 158.72L92.6896 158.72L93 159.671ZM97 158.478L96.78 157.502L96.77 157.505L96.76 157.507L97 158.478ZM101 157.576L101.22 158.552L101.231 158.549L101 157.576ZM105 156.625L105.231 157.598L105.243 157.595L105.254 157.592L105 156.625ZM109 155.576L109.254 156.543L109.265 156.54L109 155.576ZM113 154.475L112.759 153.504L112.747 153.508L112.735 153.511L113 154.475ZM119 153.285L118.887 152.291L118.873 152.293L118.859 152.295L119 153.285ZM124 152.718L124.113 153.712L124.128 153.71L124.143 153.708L124 152.718ZM127 152.285L126.903 151.29L126.88 151.292L126.857 151.295L127 152.285ZM129 152.09L128.931 151.092L128.917 151.093L128.903 151.095L129 152.09ZM137 151.91L137.068 152.908L137.083 152.907L137.097 152.905L137 151.91ZM139 151.715L139.097 152.71L139.113 152.709L139.129 152.707L139 151.715ZM142 151.325L141.967 150.326L141.919 150.327L141.871 150.333L142 151.325ZM144 151.259L144.027 150.259L143.997 150.259L143.967 150.26L144 151.259ZM147 151.579L147.13 150.587L147.129 150.587L147 151.579ZM150 151.91L150.068 150.912L150.067 150.912L150 151.91ZM158 152.09L157.931 153.088L157.932 153.088L158 152.09ZM163 152.729L162.859 153.719L162.859 153.719L163 152.729ZM168 153.46L168.185 152.477L168.185 152.477L168 153.46ZM173 154.627L173.242 153.657L173.241 153.657L173 154.627ZM180 156.373L179.758 157.343L179.76 157.344L180 156.373ZM183 157.116L182.76 158.087L182.77 158.089L182.781 158.092L183 157.116ZM186 157.79L185.781 158.766L185.793 158.768L186 157.79ZM189 158.425L189.22 157.449L189.207 157.447L189 158.425ZM194 159.721L194.288 158.763L194.287 158.763L194 159.721ZM199 161.424L199.351 160.487L199.346 160.486L199 161.424ZM203 162.921L202.649 163.858L202.662 163.862L202.675 163.867L203 162.921ZM208 164.424L208.282 163.465L208.282 163.465L208 164.424ZM214 166.344L213.673 167.289L213.673 167.289L214 166.344ZM219 168.203L218.636 169.135L218.637 169.135L219 168.203ZM223 169.761L222.637 170.693L222.659 170.701L222.681 170.709L223 169.761ZM225 170.434L224.681 171.382L224.702 171.389L224.723 171.395L225 170.434ZM230 171.886L230.335 170.944L230.323 170.94L230.311 170.936L230 171.886ZM234 173.309L233.665 174.251L233.673 174.254L234 173.309ZM238 174.691L238.33 173.747L238.327 173.746L238 174.691ZM242 176.103L241.704 177.058L241.71 177.06L242 176.103ZM243 176.406L242.71 177.363L242.739 177.372L242.769 177.379L243 176.406ZM245 176.88L244.769 177.853L244.791 177.858L244.814 177.862L245 176.88ZM248 177.449L248.197 176.468L248.186 176.467L248 177.449ZM252 178.425L252.264 177.46L252.264 177.46L252 178.425ZM258 180.105L258.243 179.135L258.243 179.135L258 180.105ZM265 181.65L265.22 180.674L265.219 180.674L265 181.65ZM269 182.551L268.78 183.527L268.792 183.529L268.804 183.532L269 182.551ZM273 183.246L273.164 182.26L273.163 182.259L273 183.246ZM277 183.83L276.904 184.825L276.904 184.825L277 183.83ZM281 183.996L280.991 184.996L280.999 184.996L281 183.996ZM285 184L284.999 185H285V184ZM313 184L313 185L313 185L313 184ZM318 183.999L318 184.999L318.005 184.999L318 183.999ZM323 183.83L322.905 182.834L322.905 182.835L323 183.83ZM328 183.155L327.891 182.161L327.881 182.162L328 183.155ZM332 182.718L332.109 183.712L332.133 183.709L332.158 183.706L332 182.718ZM336 182.08L336.158 183.068L336.164 183.066L336 182.08ZM340 181.414L340.164 182.4L340.165 182.4L340 181.414ZM345 180.576L345.165 181.562L345.178 181.56L345 180.576ZM356 178.424L355.834 177.438L355.822 177.44L356 178.424ZM359 177.92L358.84 176.933L358.834 176.934L359 177.92ZM363 177.272L362.862 176.282L362.851 176.283L362.84 176.285L363 177.272ZM367 176.715L367.138 177.705L367.162 177.702L367.187 177.697L367 176.715ZM369 176.335L369.187 177.317L369.207 177.314L369.226 177.309L369 176.335ZM371 175.87L371.226 176.844L371.239 176.841L371 175.87ZM377 174.449L376.825 173.464L376.814 173.466L376.802 173.469L377 174.449ZM381 173.739L381.175 174.724L381.19 174.721L381.204 174.718L381 173.739ZM384 173.113L384.204 174.092L384.214 174.09L384.224 174.088L384 173.113ZM391 171.463L390.85 170.474L390.836 170.477L390.821 170.479L391 171.463ZM393 171.159L392.895 170.165L392.872 170.167L392.85 170.17L393 171.159ZM396 170.841L396.105 171.836L396.119 171.834L396 170.841ZM399 170.334L399.202 171.313L399.214 171.311L399.226 171.308L399 170.334ZM401 169.87L401.226 170.844L401.237 170.842L401 169.87ZM406 168.651L405.777 167.676L405.763 167.679L406 168.651ZM415 166.789L415.208 167.767L415.218 167.765L415 166.789ZM421 165.449L420.804 164.468L420.793 164.471L420.782 164.473L421 165.449ZM425 164.754L425.162 165.741L425.163 165.741L425 164.754ZM429 164.166L428.892 163.172L428.892 163.172L429 164.166ZM434 163.711L433.867 162.72L433.866 162.72L434 163.711ZM439 162.803L439.188 163.785L439.188 163.785L439 162.803ZM444 161.92L444.164 162.907L444.164 162.906L444 161.92ZM448 161.285L447.896 160.29L447.884 160.292L447.873 160.293L448 161.285ZM450 161.075L449.92 160.078L449.908 160.079L449.896 160.08L450 161.075ZM453 160.834L453.08 161.831L453.108 161.829L453.136 161.825L453 160.834ZM457 160.285L456.903 159.29L456.883 159.292L456.864 159.294L457 160.285ZM459 160.09L458.931 159.092L458.917 159.093L458.903 159.095L459 160.09ZM465 159.91L464.932 158.912L464.931 158.912L465 159.91ZM472 159.09L472.068 160.088L472.068 160.088L472 159.09ZM477 159V158L476.998 158L477 159ZM491 159L491.001 158H491V159ZM496 159.039L495.956 160.038L495.956 160.038L496 159.039ZM499 159.285L499.142 158.295L499.128 158.293L499 159.285ZM502 159.715L501.858 160.705L501.88 160.708L501.903 160.71L502 159.715ZM504 159.91L503.903 160.905L503.917 160.907L503.931 160.908L504 159.91ZM508 160.014L507.976 161.014L507.976 161.014L508 160.014ZM511 160.17L510.904 161.165L510.905 161.165L511 160.17ZM514 160.579L513.852 161.568L513.856 161.569L514 160.579ZM516 160.87L515.856 161.86L515.867 161.861L516 160.87ZM519 161.272L519.16 160.285L519.146 160.283L519.133 160.281L519 161.272ZM523 161.92L523.166 160.934L523.16 160.933L523 161.92ZM526 162.424L526.177 161.44L526.166 161.438L526 162.424ZM532 163.562L531.841 164.549L531.851 164.551L531.86 164.552L532 163.562ZM534 163.844L533.86 164.834L533.875 164.836L533.89 164.838L534 163.844ZM538 164.296L538.153 163.308L538.153 163.308L538 164.296ZM544 165.576L543.784 166.552L543.789 166.554L544 165.576ZM549 166.654L549.232 165.681L549.221 165.679L549.211 165.676L549 166.654ZM554 168.076L554.334 167.133L554.325 167.13L554.317 167.127L554 168.076ZM557 169.139L556.666 170.082L556.675 170.085L557 169.139ZM560 170.079L559.735 171.043L559.751 171.048L559.767 171.052L560 170.079ZM564 171.036L564.24 170.065L564.233 170.063L564 171.036ZM567 171.887L567.333 170.944L567.321 170.94L567.309 170.936L567 171.887ZM569 172.593L569.349 171.656L569.341 171.653L569.333 171.65L569 172.593ZM573 174.166L573.416 173.257L573.403 173.25L573.389 173.245L573 174.166ZM577 175.995L576.584 176.904L576.61 176.916L576.637 176.927L577 175.995ZM579 176.773L578.637 177.705L578.655 177.712L578.673 177.718L579 176.773ZM583 178.198L582.613 179.12L582.613 179.12L583 178.198ZM590 181.731L589.555 182.627L589.565 182.631L589.574 182.636L590 181.731ZM593 183.142L592.574 184.047L592.582 184.05L592.589 184.054L593 183.142ZM598 185.515L597.516 186.39L597.516 186.39L598 185.515ZM604 189.258L603.474 190.109L603.474 190.109L604 189.258ZM609 192.296L609.546 191.458L609.546 191.458L609 192.296ZM613.996 195.799L614.575 194.983L614.574 194.983L613.996 195.799ZM617.83 198.559L617.209 199.343L617.21 199.343L617.83 198.559ZM622.155 202.35L622.814 201.598L622.814 201.597L622.155 202.35ZM625.718 205.46L625.027 206.183L625.027 206.183L625.718 205.46ZM629.127 208.87L629.84 208.168L629.837 208.166L629.127 208.87ZM631.639 211.421L632.381 210.751L632.367 210.735L632.352 210.719L631.639 211.421ZM632.406 212.271L633.15 211.603L633.148 211.601L632.406 212.271ZM634.504 214.87L633.727 215.5L633.731 215.505L634.504 214.87ZM635.908 216.579L635.135 217.214L635.141 217.22L635.146 217.226L635.908 216.579ZM638.798 220.09L639.598 219.489L639.597 219.489L638.798 220.09ZM641.494 224.001L642.326 223.446L642.325 223.445L641.494 224.001ZM642.829 226L643.672 225.462L643.666 225.453L643.661 225.445L642.829 226ZM644.743 229L645.615 228.511L645.601 228.486L645.586 228.462L644.743 229ZM645.862 230.998L646.768 230.575L646.752 230.541L646.734 230.509L645.862 230.998ZM646.786 232.975L647.729 232.643L647.713 232.596L647.692 232.552L646.786 232.975ZM647.442 234.84L648.415 234.607L648.403 234.557L648.385 234.508L647.442 234.84ZM647.798 236.329L648.791 236.209L648.784 236.152L648.771 236.096L647.798 236.329ZM425.2 164.721L425.363 165.708L425.363 165.708L425.2 164.721ZM318.184 183.998L318.179 182.998L318.179 182.998L318.184 183.998ZM147.086 151.59L146.956 152.582L146.956 152.582L147.086 151.59ZM18.6346 209.144L19.4029 209.784L19.4029 209.784L18.6346 209.144ZM11.4809 218.896L12.3235 219.434L12.3236 219.434L11.4809 218.896ZM0 0H-1V375H0H1V0H0ZM0 375V376H666V375V374H0V375ZM666 375H667V0H666H665V375H666ZM666 0V-1H0V0V1H666V0ZM648 238V237H3V238V239H648V238ZM3 238L3.99812 238.061L4.10074 236.39L3.10262 236.329L2.1045 236.268L2.00188 237.939L3 238ZM3.10262 236.329L4.08835 236.497L4.17169 236.009L3.18596 235.841L2.20023 235.673L2.11689 236.161L3.10262 236.329ZM3.18596 235.841L4.16714 236.034L4.53828 234.148L3.5571 233.955L2.57592 233.762L2.20478 235.648L3.18596 235.841ZM3.5571 233.955L4.50586 234.271L5.15864 232.311L4.20988 231.995L3.26112 231.679L2.60834 233.639L3.5571 233.955ZM4.20988 231.995L5.13133 232.383C5.69115 231.056 6.32267 229.759 6.98919 228.455L6.09877 228L5.20835 227.545C4.53157 228.869 3.87537 230.214 3.28843 231.607L4.20988 231.995ZM6.09877 228L6.98918 228.455C7.50343 227.449 8.0189 226.46 8.56863 225.495L7.69985 225L6.83107 224.505C6.25794 225.51 5.72565 226.533 5.20836 227.545L6.09877 228ZM7.69985 225L8.56867 225.495C9.1366 224.499 9.74811 223.532 10.3728 222.529L9.52392 222L8.67508 221.471C8.06161 222.456 7.42338 223.465 6.83103 224.505L7.69985 225ZM9.52392 222L10.37 222.533L12.2604 219.533L11.4144 219L10.5684 218.467L8.67789 221.467L9.52392 222ZM18.7546 209L19.5229 209.64C20.6499 208.288 21.7531 206.953 22.9119 205.67L22.1698 205L21.4277 204.33C20.2361 205.649 19.1039 207.018 17.9863 208.36L18.7546 209ZM22.1698 205L22.9121 205.67C24.1253 204.326 25.3964 203.031 26.6999 201.753L26 201.039L25.3001 200.325C23.9788 201.619 22.6771 202.946 21.4275 204.33L22.1698 205ZM26 201.039L26.6871 201.766L31.4016 197.307L30.7145 196.58L30.0274 195.853L25.3129 200.312L26 201.039ZM30.7145 196.58L31.418 197.291L33.9851 194.75L33.2816 194.039L32.5781 193.328L30.011 195.869L30.7145 196.58ZM33.2816 194.039L33.9513 194.782L35.7199 193.187L35.0502 192.444L34.3805 191.701L32.6119 193.296L33.2816 194.039ZM35.0502 192.444L35.6956 193.208C36.8368 192.244 37.9397 191.499 39.1976 190.502L38.5764 189.718L37.9552 188.934C36.8843 189.783 35.5336 190.726 34.4048 191.68L35.0502 192.444ZM38.5764 189.718L39.1971 190.502C40.7183 189.298 42.1163 188.111 43.6284 187.009L43.0394 186.201L42.4504 185.393C40.8977 186.525 39.4055 187.786 37.9557 188.934L38.5764 189.718ZM43.0394 186.201L43.6051 187.026L48.5657 183.623L48 182.798L47.4343 181.973L42.4737 185.376L43.0394 186.201ZM48 182.798L48.5733 183.617C50.3148 182.399 51.8468 181.209 53.5508 180.073L52.9961 179.241L52.4414 178.409C50.7436 179.541 49.0348 180.853 47.4267 181.979L48 182.798ZM52.9961 179.241L53.5512 180.073C55.1075 179.034 56.5906 178.227 58.2505 177.173L57.7145 176.329L57.1785 175.485C55.7164 176.413 53.9629 177.394 52.4411 178.409L52.9961 179.241ZM57.7145 176.329L58.2502 177.173C59.8071 176.186 61.0959 175.235 62.5941 174.359L62.0895 173.496L61.5849 172.633C60.0787 173.513 58.5574 174.61 57.1789 175.485L57.7145 176.329ZM62.0895 173.496L62.594 174.359C63.5191 173.819 64.472 173.32 65.4468 172.839L65.0039 171.942L64.561 171.045C63.5598 171.54 62.5629 172.061 61.585 172.633L62.0895 173.496ZM65.0039 171.942L65.4348 172.844L69.4309 170.936L69 170.034L68.5691 169.132L64.573 171.04L65.0039 171.942ZM69 170.034L69.4523 170.926C70.6507 170.318 71.823 169.658 72.9686 169.025C74.1226 168.387 75.2579 167.773 76.4228 167.229L76 166.323L75.5772 165.417C74.3458 165.991 73.1593 166.635 72.0014 167.274C70.8352 167.919 69.7056 168.555 68.5477 169.142L69 170.034ZM76 166.323L76.4227 167.229C78.6761 166.178 80.949 165.449 83.3715 164.479L83 163.551L82.6285 162.623C80.3874 163.519 77.8819 164.342 75.5773 165.417L76 166.323ZM83 163.551L83.3874 164.473L88.3874 162.372L88 161.45L87.6126 160.528L82.6126 162.629L83 163.551ZM88 161.45L88.3686 162.38C89.9862 161.738 91.6385 161.167 93.3104 160.622L93 159.671L92.6896 158.72C90.9985 159.273 89.3028 159.858 87.6314 160.52L88 161.45ZM93 159.671L93.3099 160.622C94.6351 160.19 95.9291 159.773 97.24 159.449L97 158.478L96.76 157.507C95.3687 157.851 94.0093 158.29 92.6901 158.72L93 159.671ZM97 158.478L97.22 159.454L101.22 158.552L101 157.576L100.78 156.6L96.78 157.502L97 158.478ZM101 157.576L101.231 158.549L105.231 157.598L105 156.625L104.769 155.652L100.769 156.603L101 157.576ZM105 156.625L105.254 157.592L109.254 156.543L109 155.576L108.746 154.609L104.746 155.658L105 156.625ZM109 155.576L109.265 156.54L113.265 155.439L113 154.475L112.735 153.511L108.735 154.612L109 155.576ZM113 154.475L113.241 155.446C115.192 154.961 117.164 154.556 119.141 154.275L119 153.285L118.859 152.295C116.802 152.588 114.762 153.007 112.759 153.504L113 154.475ZM119 153.285L119.113 154.279L124.113 153.712L124 152.718L123.887 151.724L118.887 152.291L119 153.285ZM124 152.718L124.143 153.708L127.143 153.275L127 152.285L126.857 151.295L123.857 151.728L124 152.718ZM127 152.285L127.097 153.28L129.097 153.085L129 152.09L128.903 151.095L126.903 151.29L127 152.285ZM129 152.09L129.069 153.088C130.36 152.999 131.66 152.999 133 153C134.328 153 135.697 153.001 137.068 152.908L137 151.91L136.932 150.912C135.64 151.001 134.341 151 133 151C131.672 150.999 130.303 150.998 128.931 151.092L129 152.09ZM137 151.91L137.097 152.905L139.097 152.71L139 151.715L138.903 150.72L136.903 150.915L137 151.91ZM139 151.715L139.129 152.707L142.129 152.317L142 151.325L141.871 150.333L138.871 150.723L139 151.715ZM142 151.325L142.033 152.324L144.033 152.258L144 151.259L143.967 150.26L141.967 150.326L142 151.325ZM144 151.259L143.973 152.259C144.915 152.284 145.828 152.435 146.871 152.571L147 151.579L147.129 150.587C146.176 150.463 145.103 150.288 144.027 150.259L144 151.259ZM150 151.91L149.932 152.908C151.303 153.001 152.672 153 154 153C155.34 152.999 156.64 152.999 157.931 153.088L158 152.09L158.069 151.092C156.697 150.998 155.328 150.999 154 151C152.659 151 151.36 151.001 150.068 150.912L150 151.91ZM158 152.09L157.932 153.088C159.564 153.199 161.154 153.475 162.859 153.719L163 152.729L163.141 151.739C161.514 151.507 159.798 151.211 158.068 151.092L158 152.09ZM163 152.729L162.859 153.719C164.572 153.964 166.187 154.136 167.815 154.443L168 153.46L168.185 152.477C166.501 152.16 164.762 151.97 163.141 151.739L163 152.729ZM168 153.46L167.815 154.443C169.46 154.753 171.079 155.18 172.759 155.597L173 154.627L173.241 153.657C171.601 153.248 169.904 152.801 168.185 152.477L168 153.46ZM173 154.627L172.758 155.597L179.758 157.343L180 156.373L180.242 155.403L173.242 153.657L173 154.627ZM180 156.373L179.76 157.344L182.76 158.087L183 157.116L183.24 156.145L180.24 155.402L180 156.373ZM183 157.116L182.781 158.092L185.781 158.766L186 157.79L186.219 156.814L183.219 156.14L183 157.116ZM186 157.79L185.793 158.768L188.793 159.403L189 158.425L189.207 157.447L186.207 156.812L186 157.79ZM189 158.425L188.78 159.401C190.444 159.776 192.089 160.192 193.713 160.679L194 159.721L194.287 158.763C192.609 158.26 190.918 157.832 189.22 157.449L189 158.425ZM194 159.721L193.712 160.679C195.372 161.177 197.007 161.756 198.654 162.362L199 161.424L199.346 160.486C197.685 159.874 196.006 159.279 194.288 158.763L194 159.721ZM199 161.424L198.649 162.361L202.649 163.858L203 162.921L203.351 161.984L199.351 160.487L199 161.424ZM203 162.921L202.675 163.867C204.353 164.443 206.081 164.902 207.718 165.383L208 164.424L208.282 163.465C206.577 162.964 204.945 162.531 203.325 161.975L203 162.921ZM208 164.424L207.718 165.383C209.718 165.972 211.703 166.607 213.673 167.289L214 166.344L214.327 165.399C212.327 164.707 210.312 164.062 208.282 163.465L208 164.424ZM214 166.344L213.673 167.289C215.337 167.865 216.983 168.49 218.636 169.135L219 168.203L219.364 167.271C217.701 166.622 216.027 165.987 214.327 165.399L214 166.344ZM219 168.203L218.637 169.135L222.637 170.693L223 169.761L223.363 168.829L219.363 167.271L219 168.203ZM223 169.761L222.681 170.709L224.681 171.382L225 170.434L225.319 169.486L223.319 168.813L223 169.761ZM225 170.434L224.723 171.395C226.431 171.887 228.06 172.303 229.689 172.836L230 171.886L230.311 170.936C228.64 170.389 226.905 169.943 225.277 169.473L225 170.434ZM230 171.886L229.665 172.828L233.665 174.251L234 173.309L234.335 172.367L230.335 170.944L230 171.886ZM234 173.309L233.673 174.254L237.673 175.636L238 174.691L238.327 173.746L234.327 172.364L234 173.309ZM238 174.691L237.67 175.635C238.943 176.081 240.337 176.634 241.704 177.058L242 176.103L242.296 175.148C240.963 174.734 239.725 174.235 238.33 173.747L238 174.691ZM242 176.103L241.71 177.06L242.71 177.363L243 176.406L243.29 175.449L242.29 175.146L242 176.103ZM243 176.406L242.769 177.379L244.769 177.853L245 176.88L245.231 175.907L243.231 175.433L243 176.406ZM245 176.88L244.814 177.862L247.814 178.431L248 177.449L248.186 176.467L245.186 175.898L245 176.88ZM248 177.449L247.803 178.43C249.116 178.693 250.419 179.029 251.736 179.39L252 178.425L252.264 177.46C250.933 177.097 249.578 176.745 248.197 176.469L248 177.449ZM252 178.425L251.736 179.39C253.676 179.92 255.74 180.571 257.757 181.075L258 180.105L258.243 179.135C256.228 178.631 254.332 178.026 252.264 177.46L252 178.425ZM258 180.105L257.757 181.075C260.083 181.657 262.504 182.114 264.781 182.626L265 181.65L265.219 180.674C262.834 180.138 260.553 179.713 258.243 179.135L258 180.105ZM265 181.65L264.78 182.626L268.78 183.527L269 182.551L269.22 181.575L265.22 180.674L265 181.65ZM269 182.551L268.804 183.532C270.152 183.801 271.514 184.014 272.837 184.233L273 183.246L273.163 182.259C271.816 182.036 270.502 181.831 269.196 181.57L269 182.551ZM273 183.246L272.836 184.232C274.15 184.451 275.52 184.691 276.904 184.825L277 183.83L277.096 182.835C275.798 182.709 274.508 182.483 273.164 182.26L273 183.246ZM277 183.83L276.904 184.825C278.282 184.959 279.653 184.984 280.991 184.996L281 183.996L281.009 182.996C279.675 182.984 278.38 182.959 277.096 182.835L277 183.83ZM281 183.996L280.999 184.996L284.999 185L285 184L285.001 183L281.001 182.996L281 183.996ZM285 184V185H297V184V183H285V184ZM297 184V185H313V184V183H297V184ZM313 184L313 185L318 184.999L318 183.999L318 182.999L313 183L313 184ZM323 183.83L323.095 184.826C323.96 184.743 324.815 184.621 325.649 184.497C326.49 184.372 327.302 184.246 328.119 184.148L328 183.155L327.881 182.162C327.028 182.264 326.177 182.396 325.354 182.519C324.524 182.642 323.714 182.758 322.905 182.834L323 183.83ZM328 183.155L328.109 184.149L332.109 183.712L332 182.718L331.891 181.724L327.891 182.161L328 183.155ZM332 182.718L332.158 183.706L336.158 183.068L336 182.08L335.842 181.092L331.842 181.73L332 182.718ZM336 182.08L336.164 183.066L340.164 182.4L340 181.414L339.836 180.428L335.836 181.094L336 182.08ZM340 181.414L340.165 182.4L345.165 181.562L345 180.576L344.835 179.59L339.835 180.428L340 181.414ZM345 180.576L345.178 181.56C347.029 181.226 348.87 180.852 350.699 180.48C352.532 180.108 354.352 179.738 356.178 179.408L356 178.424L355.822 177.44C353.971 177.774 352.13 178.148 350.301 178.52C348.468 178.892 346.648 179.262 344.822 179.592L345 180.576ZM356 178.424L356.166 179.41L359.166 178.906L359 177.92L358.834 176.934L355.834 177.438L356 178.424ZM359 177.92L359.16 178.907L363.16 178.259L363 177.272L362.84 176.285L358.84 176.933L359 177.92ZM363 177.272L363.138 178.262L367.138 177.705L367 176.715L366.862 175.725L362.862 176.282L363 177.272ZM367 176.715L367.187 177.697L369.187 177.317L369 176.335L368.813 175.353L366.813 175.733L367 176.715ZM369 176.335L369.226 177.309L371.226 176.844L371 175.87L370.774 174.896L368.774 175.361L369 176.335ZM371 175.87L371.239 176.841C373.255 176.345 375.21 175.83 377.198 175.429L377 174.449L376.802 173.469C374.76 173.88 372.735 174.413 370.761 174.899L371 175.87ZM377 174.449L377.175 175.434L381.175 174.724L381 173.739L380.825 172.754L376.825 173.464L377 174.449ZM381 173.739L381.204 174.718L384.204 174.092L384 173.113L383.796 172.134L380.796 172.76L381 173.739ZM384 173.113L384.224 174.088C386.652 173.529 388.839 172.871 391.179 172.447L391 171.463L390.821 170.479C388.443 170.911 386.018 171.623 383.776 172.138L384 173.113ZM391 171.463L391.15 172.452L393.15 172.148L393 171.159L392.85 170.17L390.85 170.474L391 171.463ZM393 171.159L393.105 172.153L396.105 171.835L396 170.841L395.895 169.847L392.895 170.165L393 171.159ZM396 170.841L396.119 171.834C397.167 171.708 398.193 171.521 399.202 171.313L399 170.334L398.798 169.355C397.817 169.557 396.851 169.732 395.881 169.848L396 170.841ZM399 170.334L399.226 171.308L401.226 170.844L401 169.87L400.774 168.896L398.774 169.36L399 170.334ZM401 169.87L401.237 170.842L406.237 169.623L406 168.651L405.763 167.679L400.763 168.898L401 169.87ZM406 168.651L406.223 169.626C409.212 168.941 412.157 168.416 415.208 167.767L415 166.789L414.792 165.811C411.849 166.436 408.762 166.993 405.777 167.676L406 168.651ZM415 166.789L415.218 167.765L421.218 166.425L421 165.449L420.782 164.473L414.782 165.813L415 166.789ZM421 165.449L421.196 166.43C422.501 166.169 423.818 165.961 425.162 165.741L425 164.754L424.838 163.767C423.512 163.985 422.153 164.199 420.804 164.468L421 165.449ZM429 164.166L429.108 165.16C429.92 165.072 430.733 165.016 431.577 164.952C432.413 164.889 433.272 164.818 434.134 164.702L434 163.711L433.866 162.72C433.067 162.828 432.259 162.894 431.426 162.957C430.601 163.02 429.745 163.079 428.892 163.172L429 164.166ZM434 163.711L434.133 164.702C435.85 164.471 437.56 164.096 439.188 163.785L439 162.803L438.812 161.821C437.112 162.146 435.51 162.499 433.867 162.72L434 163.711ZM439 162.803L439.188 163.785C440.84 163.469 442.497 163.183 444.164 162.907L444 161.92L443.836 160.933C442.161 161.211 440.486 161.501 438.812 161.821L439 162.803ZM444 161.92L444.164 162.906C445.516 162.682 446.813 162.445 448.127 162.277L448 161.285L447.873 160.293C446.511 160.467 445.146 160.716 443.836 160.934L444 161.92ZM448 161.285L448.104 162.28L450.104 162.07L450 161.075L449.896 160.08L447.896 160.29L448 161.285ZM450 161.075L450.08 162.072L453.08 161.831L453 160.834L452.92 159.837L449.92 160.078L450 161.075ZM453 160.834L453.136 161.825L457.136 161.276L457 160.285L456.864 159.294L452.864 159.843L453 160.834ZM457 160.285L457.097 161.28L459.097 161.085L459 160.09L458.903 159.095L456.903 159.29L457 160.285ZM459 160.09L459.069 161.088C460.033 161.021 461.005 161.01 462.01 161C463.006 160.989 464.036 160.979 465.069 160.908L465 159.91L464.931 158.912C463.967 158.979 462.995 158.99 461.99 159C460.994 159.011 459.964 159.021 458.931 159.092L459 160.09ZM465 159.91L465.068 160.908C466.284 160.824 467.483 160.654 468.64 160.49C469.809 160.324 470.936 160.165 472.068 160.088L472 159.09L471.932 158.092C470.716 158.175 469.517 158.345 468.359 158.51C467.19 158.675 466.063 158.835 464.932 158.912L465 159.91ZM472 159.09L472.068 160.088C473.688 159.977 475.312 160.003 477.002 160L477 159L476.998 158C475.358 158.003 473.638 157.975 471.932 158.092L472 159.09ZM477 159V160H483V159V158H477V159ZM483 159V160H491V159V158H483V159ZM491 159L490.999 160C492.693 160.001 494.321 159.966 495.956 160.038L496 159.039L496.044 158.04C494.351 157.966 492.637 158.001 491.001 158L491 159ZM496 159.039L495.956 160.038C496.942 160.081 497.91 160.152 498.872 160.277L499 159.285L499.128 158.293C498.094 158.16 497.068 158.085 496.044 158.04L496 159.039ZM499 159.285L498.858 160.275L501.858 160.705L502 159.715L502.142 158.725L499.142 158.295L499 159.285ZM502 159.715L501.903 160.71L503.903 160.905L504 159.91L504.097 158.915L502.097 158.72L502 159.715ZM504 159.91L503.931 160.908C505.291 161.002 506.697 160.983 507.976 161.014L508 160.014L508.024 159.014C506.637 158.981 505.373 159.002 504.069 158.912L504 159.91ZM508 160.014L507.976 161.014C508.974 161.038 509.942 161.073 510.904 161.165L511 160.17L511.096 159.175C510.06 159.075 509.032 159.038 508.024 159.014L508 160.014ZM511 160.17L510.905 161.165C511.877 161.258 512.833 161.416 513.852 161.568L514 160.579L514.148 159.59C513.169 159.444 512.135 159.274 511.095 159.175L511 160.17ZM514 160.579L513.856 161.569L515.856 161.86L516 160.87L516.144 159.88L514.144 159.589L514 160.579ZM516 160.87L515.867 161.861L518.867 162.263L519 161.272L519.133 160.281L516.133 159.879L516 160.87ZM519 161.272L518.84 162.259L522.84 162.907L523 161.92L523.16 160.933L519.16 160.285L519 161.272ZM523 161.92L522.834 162.906L525.834 163.41L526 162.424L526.166 161.438L523.166 160.934L523 161.92ZM526 162.424L525.823 163.408C527.741 163.754 529.842 164.228 531.841 164.549L532 163.562L532.159 162.575C530.138 162.25 528.265 161.816 526.177 161.44L526 162.424ZM532 163.562L531.86 164.552L533.86 164.834L534 163.844L534.14 162.854L532.14 162.572L532 163.562ZM534 163.844L533.89 164.838C535.273 164.992 536.547 165.083 537.847 165.284L538 164.296L538.153 163.308C536.799 163.099 535.393 162.992 534.11 162.85L534 163.844ZM538 164.296L537.847 165.284C539.829 165.591 541.732 166.099 543.784 166.552L544 165.576L544.216 164.6C542.274 164.171 540.217 163.627 538.153 163.308L538 164.296ZM544 165.576L543.789 166.554L548.789 167.632L549 166.654L549.211 165.676L544.211 164.598L544 165.576ZM549 166.654L548.768 167.627C550.431 168.023 552.066 168.485 553.683 169.025L554 168.076L554.317 167.127C552.64 166.567 550.947 166.091 549.232 165.681L549 166.654ZM554 168.076L553.666 169.019L556.666 170.082L557 169.139L557.334 168.196L554.334 167.133L554 168.076ZM557 169.139L556.675 170.085C557.678 170.43 558.696 170.758 559.735 171.043L560 170.079L560.265 169.115C559.28 168.844 558.306 168.53 557.325 168.193L557 169.139ZM560 170.079L559.767 171.052L563.767 172.009L564 171.036L564.233 170.063L560.233 169.106L560 170.079ZM564 171.036L563.76 172.007C564.752 172.252 565.725 172.524 566.691 172.838L567 171.887L567.309 170.936C566.291 170.605 565.272 170.32 564.24 170.065L564 171.036ZM567 171.887L566.667 172.83L568.667 173.536L569 172.593L569.333 171.65L567.333 170.944L567 171.887ZM569 172.593L568.651 173.53C569.989 174.029 571.309 174.537 572.611 175.087L573 174.166L573.389 173.245C572.049 172.679 570.699 172.159 569.349 171.656L569 172.593ZM573 174.166L572.584 175.075L576.584 176.904L577 175.995L577.416 175.086L573.416 173.257L573 174.166ZM577 175.995L576.637 176.927L578.637 177.705L579 176.773L579.363 175.841L577.363 175.063L577 175.995ZM579 176.773L578.673 177.718C580.057 178.197 581.346 178.589 582.613 179.12L583 178.198L583.387 177.276C582.042 176.711 580.617 176.275 579.327 175.828L579 176.773ZM583 178.198L582.613 179.12C584.998 180.12 587.105 181.409 589.555 182.627L590 181.731L590.445 180.835C588.217 179.729 585.826 178.298 583.387 177.276L583 178.198ZM590 181.731L589.574 182.636L592.574 184.047L593 183.142L593.426 182.237L590.426 180.826L590 181.731ZM593 183.142L592.589 184.054C594.303 184.826 595.944 185.52 597.516 186.39L598 185.515L598.484 184.64C596.82 183.718 595.065 182.976 593.411 182.23L593 183.142ZM598 185.515L597.516 186.39C599.558 187.521 601.394 188.823 603.474 190.109L604 189.258L604.526 188.407C602.598 187.215 600.568 185.793 598.484 184.64L598 185.515ZM604 189.258L603.474 190.109C605.2 191.175 606.82 192.069 608.454 193.134L609 192.296L609.546 191.458C607.912 190.393 606.118 189.391 604.526 188.407L604 189.258ZM609 192.296L608.454 193.134C610.137 194.231 611.732 195.421 613.418 196.615L613.996 195.799L614.574 194.983C612.942 193.827 611.271 192.583 609.546 191.458L609 192.296ZM613.996 195.799L613.417 196.615C614.736 197.55 616.002 198.387 617.209 199.343L617.83 198.559L618.451 197.775C617.188 196.775 615.824 195.87 614.575 194.983L613.996 195.799ZM617.83 198.559L617.21 199.343C618.691 200.516 619.999 201.792 621.496 203.103L622.155 202.35L622.814 201.597C621.427 200.384 619.977 198.982 618.451 197.775L617.83 198.559ZM622.155 202.35L621.496 203.103C622.734 204.186 623.904 205.11 625.027 206.183L625.718 205.46L626.409 204.737C625.252 203.63 623.948 202.59 622.814 201.598L622.155 202.35ZM625.718 205.46L625.027 206.183C626.177 207.282 627.271 208.418 628.417 209.574L629.127 208.87L629.837 208.166C628.719 207.038 627.585 205.86 626.409 204.737L625.718 205.46ZM629.127 208.87L628.414 209.572L630.926 212.123L631.639 211.421L632.352 210.719L629.84 208.168L629.127 208.87ZM631.639 211.421L630.897 212.091L631.664 212.941L632.406 212.271L633.148 211.601L632.381 210.751L631.639 211.421ZM632.406 212.271L631.662 212.939C632.388 213.748 632.973 214.571 633.727 215.5L634.504 214.87L635.281 214.24C634.633 213.441 633.912 212.45 633.15 211.603L632.406 212.271ZM634.504 214.87L633.731 215.505L635.135 217.214L635.908 216.579L636.681 215.944L635.277 214.235L634.504 214.87ZM635.908 216.579L635.146 217.226C636.141 218.398 637.11 219.507 637.998 220.691L638.798 220.09L639.597 219.489C638.662 218.245 637.641 217.074 636.67 215.932L635.908 216.579ZM638.798 220.09L637.998 220.691C638.928 221.929 639.771 223.225 640.663 224.557L641.494 224.001L642.325 223.445C641.455 222.145 640.57 220.783 639.598 219.489L638.798 220.09ZM641.494 224.001L640.662 224.556L641.997 226.555L642.829 226L643.661 225.445L642.326 223.446L641.494 224.001ZM642.829 226L641.986 226.538L643.9 229.538L644.743 229L645.586 228.462L643.672 225.462L642.829 226ZM644.743 229L643.871 229.489L644.99 231.487L645.862 230.998L646.734 230.509L645.615 228.511L644.743 229ZM645.862 230.998L644.956 231.421L645.88 233.398L646.786 232.975L647.692 232.552L646.768 230.575L645.862 230.998ZM646.786 232.975L645.843 233.307L646.499 235.172L647.442 234.84L648.385 234.508L647.729 232.643L646.786 232.975ZM647.442 234.84L646.469 235.073L646.825 236.562L647.798 236.329L648.771 236.096L648.415 234.607L647.442 234.84ZM647.798 236.329L646.805 236.449L647.007 238.12L648 238L648.993 237.88L648.791 236.209L647.798 236.329ZM429 164.166L428.892 163.172C427.586 163.314 426.296 163.527 425.038 163.734L425.2 164.721L425.363 165.708C426.631 165.499 427.866 165.295 429.108 165.16L429 164.166ZM425.2 164.721L425.038 163.734L424.837 163.767L425 164.754L425.163 165.741L425.363 165.708L425.2 164.721ZM323 183.83L322.905 182.835C321.356 182.983 319.795 182.991 318.179 182.998L318.184 183.998L318.189 184.998C319.789 184.991 321.441 184.984 323.095 184.825L323 183.83ZM318.184 183.998L318.179 182.998L317.995 182.999L318 183.999L318.005 184.999L318.189 184.998L318.184 183.998ZM150 151.91L150.067 150.912C149.126 150.849 148.192 150.727 147.216 150.599L147.086 151.59L146.956 152.582C147.922 152.708 148.918 152.839 149.933 152.908L150 151.91ZM147.086 151.59L147.216 150.599L147.13 150.587L147 151.579L146.87 152.57L146.956 152.582L147.086 151.59ZM18.7546 209L17.9864 208.36L17.8664 208.504L18.6346 209.144L19.4029 209.784L19.5228 209.64L18.7546 209ZM18.6346 209.144L17.8664 208.504C16.5432 210.092 15.1966 211.707 13.9501 213.409L14.7569 214L15.5637 214.591C16.767 212.948 18.0729 211.38 19.4029 209.784L18.6346 209.144ZM14.7569 214L13.9501 213.409C12.767 215.025 11.6929 216.707 10.6382 218.358L11.4809 218.896L12.3236 219.434C13.384 217.775 14.4244 216.147 15.5637 214.591L14.7569 214ZM11.4809 218.896L10.6382 218.357L10.5717 218.462L11.4144 219L12.2571 219.538L12.3235 219.434L11.4809 218.896Z"/>
</g>
<defs>
<clipPath id="clip0_0_1">
<rect fill="white" height="375" width="666"/>
</clipPath>
</defs>
</svg>